# xmcd CD database file
# Copyright (C) 1995-1998 Ti Kan
#
# Track frame offsets:
#	150
#	14043
#	32287
#	45182
#	60851
#	77914
#	93144
#	109591
#	119980
#	136416
#	155741
#	168016
#
# Disc length: 2463 seconds
#
# Revision: 1
# Processed by: cddbd v1.4PL0 Copyright (c) Steve Scherf et al.
# Submitted via: CDex 1.30Release
#
DISCID=8c099d0c
DTITLE=Rockhouse Ramblers - Torch This Town
DYEAR=2002
DGENRE=Country
TTITLE0=Learning How To Live With The Blues
TTITLE1=Between Home and the Honkey Tonk
TTITLE2=Torch This Town
TTITLE3=Always Open
TTITLE4=Too Little Too Late
TTITLE5=Get Up Get Busy
TTITLE6=Truck Drivin' Buddy
TTITLE7=All Bucked Up
TTITLE8=Devil's Elbow
TTITLE9=Only One For Me
TTITLE10=Making It Up As I Go
TTITLE11=Everybody's Gonna Rock
EXTD=YEAR: 2002 ID3G:   2
EXTT0=
EXTT1=
EXTT2=
EXTT3=
EXTT4=
EXTT5=
EXTT6=
EXTT7=
EXTT8=
EXTT9=
EXTT10=
EXTT11=
PLAYORDER=
